# xmcd
#
# Track frame offsets:
#	150
#	9665
#	24894
#	37227
#	48578
#	62446
#	72151
#	87453
#	107330
#	123521
#	138945
#	152039
#	161600
#	177212
#	193761
#	205343
#	215208
#	228054
#
# Disc length: 3222 seconds
#
# Revision: 0
# Processed by: cddbd v1.5.1PL0 Copyright (c) Steve Scherf et al.
# Submitted via: dBpowerAMP V4.0
#
DISCID=f70c9412
DTITLE=Doc Watson - Riding the Midnight Train
DYEAR=1900
DGENRE=Bluegrass
TTITLE0=I'm Going Back To The Old Home
TTITLE1=Greenville Trestle High
TTITLE2=Highway of Sorrow
TTITLE3=Fill My Heart with Love
TTITLE4=We'll Meet Again Sweetheart
TTITLE5=Riding the Midnight Train
TTITLE6=Ramshackle Shack
TTITLE7=Midnight on the Stormy Deep
TTITLE8=Baby Blue Eyes
TTITLE9=What Does the Deep Sea Say
TTITLE10=Let the Church Roll On
TTITLE11=Sweet Heaven When I Die
TTITLE12=Blackberry Blossom
TTITLE13=Nobody Knows Me
TTITLE14=Stay In the Middle of the Road
TTITLE15=Tuckers Barn
TTITLE16=Prayer Bells of Heaven
TTITLE17=Blue Eyed Jane
EXTD=
EXTT0=
EXTT1=
EXTT2=
EXTT3=
EXTT4=
EXTT5=
EXTT6=
EXTT7=
EXTT8=
EXTT9=
EXTT10=
EXTT11=
EXTT12=
EXTT13=
EXTT14=
EXTT15=
EXTT16=
EXTT17=
PLAYORDER=
